<svg xmlns="http://www.w3.org/2000/svg" xmlns:xlink="http://www.w3.org/1999/xlink" xmlns:v="https://vecta.io/nano" width="485.866" height="210.017" viewBox="0 0 13215.38 5712.42" fill-rule="evenodd"><g fill-rule="nonzero"><path d="M4807.17 5110.95h-206.93l-362.07 112.51-362.08-112.51H1295.24l-362.07 112.51-362.09-112.51H341.66c-155.34 0-281.27-125.92-281.27-281.28v-791.46L172.9 3585.9 60.39 3133.59V2037.73l112.51-460.24L60.39 1133.1V341.65c0-155.33 125.92-281.27 281.27-281.27h4465.5c155.34 0 281.28 125.93 281.28 281.27l22.5 1696.08-112.51 547.93 112.51 547.92-22.5 1696.07c0 155.35-125.93 281.28-281.28 281.28z" fill="#685e68"></path><path d="M4829.68 60.4h-337.52c155.34 0 281.27 125.93 281.27 281.27v4488.01c0 155.35-125.92 281.27-281.27 281.27h337.52c155.34 0 281.28-125.91 281.28-281.27V3133.61l-112.52-547.92 112.52-547.94V341.68c0-155.33-125.93-281.27-281.28-281.27z" fill="#554e56"></path><path d="M5088.45 3133.6h-488.21l-112.5-547.93 112.5-547.92h488.21z" fill="#b5adb6"></path><path d="M5110.95 3133.6h-337.52V2037.74h337.52z" fill="#a79ca7"></path><path d="M4465.23 4600.24H683.6c-62.13 0-112.51-50.36-112.51-112.51V683.59c0-62.13 50.37-112.51 112.51-112.51h3781.63c62.14 0 112.52 50.37 112.52 112.51v3804.14c0 62.14-50.37 112.51-112.52 112.51z" fill="#b5adb6"></path><path d="M4487.74 571.09h-292.52c62.14 0 112.52 50.37 112.52 112.51v3804.14c0 62.14-50.37 112.51-112.52 112.51h292.52c62.14 0 112.52-50.35 112.52-112.51l-.01-3804.14c0-62.13-50.36-112.51-112.51-112.51z" fill="#a79ca7"></path><path d="M739.53 4038.23H60.4v-904.62h679.13c62.13 0 112.51 50.37 112.51 112.52v679.6c0 62.12-50.37 112.51-112.51 112.51z" fill="#fed402"></path><path d="M750.78 3133.6H525.77c62.13 0 112.51 50.38 112.51 112.51v679.6c0 62.14-50.37 112.51-112.51 112.51h225.01c62.14 0 112.51-50.36 112.51-112.51v-679.6c0-62.12-50.36-112.51-112.51-112.51z" fill="#fac600"></path><path d="M739.53 2037.74H60.4v-904.61h679.13c62.13 0 112.51 50.37 112.51 112.51v679.6c0 62.13-50.37 112.51-112.51 112.51z" fill="#fed402"></path><path d="M750.78 1133.12H525.77c62.13 0 112.51 50.37 112.51 112.51v679.6c0 62.13-50.37 112.51-112.51 112.51h225.01c62.14 0 112.51-50.37 112.51-112.51v-679.6c0-62.12-50.36-112.51-112.51-112.51z" fill="#fac600"></path><path d="M1182.74 5652.03H683.6c-62.13 0-112.51-50.38-112.51-112.51v-428.58h724.16v428.58c0 62.12-50.37 112.51-112.51 112.51z" fill="#b98080"></path><path d="M571.1 5335.96h724.15v-225.02H571.1z" fill="#ae6c6c"></path><path d="M4487.74 5652.03h-499.13c-62.14 0-112.52-50.38-112.52-112.51v-428.58h724.16v428.58c0 62.12-50.36 112.51-112.51 112.51z" fill="#b98080"></path><path d="M3876.09 5335.96h724.15v-225.02h-724.15z" fill="#ae6c6c"></path><path d="M3664.11 2585.67c0 552.42-425.32 1000.24-977.74 1000.24S1686.13 3138.1 1686.13 2585.67c0-552.42 447.82-1000.23 1000.24-1000.23s977.74 447.81 977.74 1000.23z" fill="#fed402"></path><path d="M2686.37 1585.42c-47.74 0-94.68 3.43-140.64 9.89 485.82 68.38 859.61 485.69 859.61 990.35 0 504.69-373.79 922-859.61 990.36 45.96 6.47 92.9 9.89 140.64 9.89 552.42 0 1000.24-447.82 1000.24-1000.25 0-552.4-447.81-1000.24-1000.24-1000.24z" fill="#fac600"></path><path d="M3028.29 2585.67c0 195.06-146.87 353.19-341.92 353.19-195.06 0-353.18-158.13-353.18-353.19 0-195.05 158.12-353.18 353.18-353.18s341.92 158.13 341.92 353.18z" fill="#b98080"></path><path d="M2686.37 2232.49c-39.36 0-77.16 6.54-112.52 18.42 139.87 46.98 240.68 179.06 240.68 334.75 0 155.7-100.81 287.77-240.68 334.76 35.35 11.87 73.15 18.41 112.52 18.41 195.05 0 353.18-158.12 353.18-353.18 0-195.05-158.13-353.18-353.18-353.18z" fill="#ae6c6c"></path><path d="M2746.76 1585.42c0 33.35-27.04 60.4-60.4 60.4-33.35 0-60.4-27.05-60.4-60.4v-256.07c0-33.35 27.05-60.4 60.4-60.4 33.36 0 60.4 27.05 60.4 60.4v256.07zm0 2256.57c0 33.35-27.04 60.4-60.4 60.4-33.35 0-60.4-27.05-60.4-60.4v-256.08c0-33.36 27.05-60.4 60.4-60.4 33.36 0 60.4 27.04 60.4 60.4v256.08z"></path><use xlink:href="#B"></use><use xlink:href="#B" x="2256.55"></use><path d="M3436.35 1921.1c-23.58 23.57-61.82 23.57-85.41 0-23.58-23.58-23.58-61.82 0-85.41l181.07-181.06c23.58-23.58 61.82-23.58 85.41 0 23.57 23.58 23.57 61.82 0 85.41l-181.07 181.06zM1840.73 3516.72c-23.58 23.58-61.82 23.58-85.41 0-23.57-23.58-23.57-61.82 0-85.41l181.06-181.07c23.58-23.58 61.82-23.58 85.41 0 23.58 23.58 23.58 61.82 0 85.41l-181.06 181.07zm181.06-1681.03c23.58 23.58 23.58 61.82 0 85.41-23.58 23.57-61.82 23.57-85.41 0l-181.06-181.06c-23.58-23.58-23.58-61.82 0-85.41 23.58-23.58 61.82-23.58 85.41 0l181.06 181.06zm1595.64 1595.63c23.57 23.58 23.57 61.82 0 85.41-23.58 23.58-61.82 23.58-85.41 0l-181.07-181.07c-23.58-23.58-23.58-61.82 0-85.41 23.58-23.58 61.82-23.58 85.41 0l181.07 181.07z"></path><path d="M3747.01 2585.67c0 292.87-118.72 558.04-310.66 749.98s-457.11 310.66-749.99 310.66c-292.87 0-558.04-118.72-749.97-310.66-191.94-191.94-310.66-457.1-310.66-749.98s118.72-558.04 310.66-749.98 457.1-310.66 749.97-310.66c292.88 0 558.05 118.73 749.99 310.66 191.94 191.94 310.66 457.1 310.66 749.98zm-396.06 664.57c170.08-170.08 275.27-405.04 275.27-664.57s-105.2-494.5-275.27-664.57c-170.08-170.08-405.04-275.27-664.58-275.27-259.53 0-494.5 105.2-664.56 275.27-170.08 170.08-275.27 405.03-275.27 664.57s105.2 494.51 275.26 664.57c170.08 170.08 405.04 275.27 664.57 275.27 259.54 0 494.52-105.2 664.58-275.27zm-311.4-604.18c-33.35 0-60.4-27.05-60.4-60.4 0-33.36 27.05-60.4 60.4-60.4h224.79c33.35 0 60.4 27.04 60.4 60.4 0 33.35-27.05 60.4-60.4 60.4h-224.79z"></path><path d="M3099.94 2585.67c0 114.19-46.29 217.59-121.14 292.44-74.84 74.84-178.24 121.14-292.44 121.14-114.19 0-217.58-46.3-292.42-121.14-74.85-74.85-121.14-178.25-121.14-292.44s46.29-217.59 121.14-292.43c74.84-74.85 178.23-121.14 292.42-121.14 114.2 0 217.6 46.3 292.44 121.14 74.85 74.84 121.14 178.24 121.14 292.43zM2893.4 2792.7c52.97-52.97 85.75-126.18 85.75-207.03s-32.77-154.05-85.75-207.03c-52.98-52.97-126.19-85.75-207.04-85.75-80.84 0-154.05 32.77-207.02 85.75s-85.75 126.18-85.75 207.03 32.77 154.06 85.75 207.03c52.97 52.98 126.18 85.76 207.02 85.76 80.85 0 154.06-32.77 207.04-85.76zm1706.84-694.56c-33.35 0-60.4-27.04-60.4-60.4 0-33.35 27.05-60.4 60.4-60.4h510.71c33.36 0 60.4 27.05 60.4 60.4 0 33.36-27.04 60.4-60.4 60.4h-510.71zm510.71 975.07c33.35 0 60.4 27.05 60.4 60.4 0 33.36-27.05 60.4-60.4 60.4h-510.71c-33.36 0-60.4-27.04-60.4-60.4 0-33.35 27.04-60.4 60.4-60.4h510.71zm-3876.1 2037.73c0-33.35 27.04-60.4 60.4-60.4 33.35 0 60.4 27.05 60.4 60.4v428.58c0 47.73-19.36 90.96-50.65 122.25-31.28 31.29-74.51 50.65-122.25 50.65H683.61c-47.74 0-90.97-19.36-122.25-50.65-31.29-31.29-50.65-74.52-50.65-122.26v-428.57c0-33.35 27.04-60.4 60.4-60.4 33.35 0 60.4 27.05 60.4 60.4v428.57c0 14.4 5.83 27.43 15.26 36.86s22.46 15.26 36.85 15.26h499.14a51.93 51.93 0 0 0 36.85-15.26c9.43-9.43 15.26-22.46 15.26-36.85v-428.58zm3305 0c0-33.35 27.05-60.4 60.4-60.4 33.36 0 60.4 27.05 60.4 60.4v428.58c0 47.73-19.36 90.96-50.65 122.25-31.28 31.29-74.51 50.65-122.25 50.65h-499.13c-47.74 0-90.97-19.36-122.26-50.65s-50.65-74.52-50.65-122.26v-428.57c0-33.35 27.05-60.4 60.4-60.4 33.36 0 60.4 27.05 60.4 60.4v428.57c0 14.4 5.84 27.43 15.27 36.86a51.93 51.93 0 0 0 36.85 15.26h499.13a51.93 51.93 0 0 0 36.85-15.26c9.43-9.43 15.26-22.46 15.26-36.85v-428.58zM60.4 3194c-33.35 0-60.4-27.04-60.4-60.4 0-33.35 27.05-60.4 60.4-60.4h690.39c47.73 0 90.96 19.36 122.25 50.65s50.65 74.52 50.65 122.25v679.6c0 47.74-19.36 90.97-50.65 122.26-31.29 31.28-74.51 50.64-122.25 50.64H60.4c-33.35 0-60.4-27.04-60.4-60.4 0-33.35 27.05-60.4 60.4-60.4h690.39a51.93 51.93 0 0 0 52.11-52.11v-679.6c0-14.39-5.83-27.43-15.27-36.85-9.42-9.43-22.45-15.26-36.84-15.26H60.4zm0-2000.49c-33.35 0-60.4-27.04-60.4-60.4 0-33.35 27.05-60.4 60.4-60.4h690.39c47.73 0 90.96 19.36 122.25 50.65 31.29 31.3 50.65 74.53 50.65 122.26v679.6c0 47.73-19.36 90.97-50.65 122.25-31.28 31.29-74.52 50.65-122.25 50.65H60.4c-33.35 0-60.4-27.05-60.4-60.4 0-33.36 27.05-60.4 60.4-60.4h690.39a51.93 51.93 0 0 0 36.85-15.26c9.43-9.43 15.26-22.46 15.26-36.85v-679.6a51.94 51.94 0 0 0-15.27-36.85c-9.42-9.43-22.45-15.27-36.84-15.27H60.4z"></path><path d="M1864.7 510.7c33.35 0 60.4 27.04 60.4 60.4 0 33.35-27.05 60.4-60.4 60.4H683.6c-14.39 0-27.43 5.83-36.85 15.27-9.43 9.42-15.26 22.45-15.26 36.85v389.1h119.29c47.73 0 90.96 19.36 122.25 50.65 31.29 31.3 50.65 74.53 50.65 122.26v679.6c0 47.73-19.36 90.97-50.65 122.25-31.28 31.29-74.52 50.65-122.25 50.65H631.49v975.07h119.29c47.74 0 90.97 19.36 122.25 50.65 31.29 31.29 50.65 74.51 50.65 122.26v679.59c0 47.73-19.36 90.97-50.65 122.26s-74.52 50.65-122.25 50.65H631.49v389.11a51.93 51.93 0 0 0 15.26 36.85c9.43 9.43 22.46 15.26 36.85 15.26h3804.15a51.93 51.93 0 0 0 36.85-15.26c9.43-9.43 15.26-22.46 15.26-36.85V683.59c0-14.4-5.83-27.44-15.26-36.86-9.43-9.43-22.46-15.26-36.85-15.26H2232.46c-33.36 0-60.4-27.05-60.4-60.4 0-33.36 27.04-60.4 60.4-60.4h2255.29c47.74 0 90.96 19.36 122.25 50.65s50.65 74.52 50.65 122.26v3804.13c0 47.74-19.36 90.97-50.64 122.25-31.29 31.29-74.52 50.65-122.26 50.65H683.6c-47.73 0-90.97-19.36-122.25-50.65-31.29-31.28-50.65-74.51-50.65-122.25V4038.2c0-33.36 27.04-60.4 60.4-60.4h179.69c14.39 0 27.42-5.84 36.84-15.27 9.43-9.43 15.27-22.46 15.27-36.85v-679.59c0-14.4-5.83-27.44-15.26-36.86s-22.46-15.26-36.85-15.26H571.1c-33.36 0-60.4-27.04-60.4-60.4V2037.7c0-33.36 27.04-60.4 60.4-60.4h179.69a51.93 51.93 0 0 0 36.85-15.26c9.43-9.43 15.26-22.46 15.26-36.85v-679.6a51.94 51.94 0 0 0-15.27-36.85c-9.42-9.43-22.45-15.27-36.84-15.27H571.1c-33.36 0-60.4-27.04-60.4-60.4v-449.5c0-47.74 19.36-90.97 50.65-122.26s74.52-50.65 122.25-50.65h1181.1zM120.79 2401.8c0 33.35-27.04 60.4-60.4 60.4-33.35 0-60.4-27.05-60.4-60.4V341.67C-.01 152.96 152.96 0 341.65 0h4488.02c94.34 0 179.75 38.24 241.58 100.08 61.82 61.84 100.07 147.25 100.07 241.59v3512.67c0 33.35-27.04 60.4-60.4 60.4-33.35 0-60.4-27.05-60.4-60.4V341.67c0-61-24.71-116.23-64.68-156.19-39.96-39.97-95.18-64.69-156.18-64.69H341.64c-121.98 0-220.87 98.88-220.87 220.88V2401.8zm4929.77 1820.29c0-33.36 27.04-60.4 60.4-60.4 33.35 0 60.4 27.04 60.4 60.4v607.59c0 94.35-38.24 179.76-100.08 241.59-61.82 61.82-147.24 100.07-241.58 100.07H341.68c-94.33 0-179.75-38.24-241.58-100.07C38.28 5009.43.03 4924.02.03 4829.68V2769.55c0-33.36 27.04-60.4 60.4-60.4 33.35 0 60.4 27.04 60.4 60.4v2060.13c0 61 24.71 116.22 64.68 156.19 39.96 39.96 95.18 64.68 156.18 64.68h4488.02c60.99 0 116.22-24.71 156.19-64.68 39.96-39.96 64.68-95.18 64.68-156.19v-607.59z"></path><path d="M7344.59 814.17c22.78 21.92 34.18 48.21 34.18 78.89s-11.4 56.97-34.18 78.89c-22.79 22.79-49.97 34.18-81.52 34.18-29.8 0-55.66-10.95-77.57-32.87-63.11-61.36-133.24-107.82-210.82-139.37-77.57-31.56-157.34-47.34-238.85-47.34-84.15 0-163.92 16.22-239.74 48.66-75.82 32.42-142.43 76.69-199.41 133.23-56.97 56.54-102.11 123.16-135.42 199.85-33.31 76.27-49.96 159.1-49.96 247.19 0 84.15 15.78 164.36 47.33 239.74 31.56 75.82 75.38 142.43 131.04 199.85 55.67 57.41 121.41 103 197.23 137.18 75.83 34.19 157.34 51.28 245 51.28 77.13 0 151.64-11.83 223.52-35.06 71.87-23.23 139.37-61.8 202.48-116.15V1651.7h-261.21c-15.78 0-30.68-3.06-44.27-9.2s-25.42-14.46-35.5-24.98-17.97-22.79-23.68-36.37c-5.7-13.59-8.76-28.05-8.76-43.83 0-30.68 10.96-56.97 32.43-78.89 21.48-21.91 47.77-32.87 79.76-32.87h372.53c32.87 0 60.48 10.52 83.27 31.56 22.79 21.03 34.18 47.76 34.18 80.2v402.34c0 19.29-3.51 35.51-10.52 48.66-7.01 13.14-16.21 25.85-27.61 38.13-95.54 85.9-195.91 148.13-300.65 186.7s-212.56 57.41-323 56.54c-76.26 0-150.33-10.52-221.33-31.12-70.99-20.6-137.62-49.09-199.85-85.9-62.24-36.81-119.22-81.52-170.93-133.67-52.16-52.16-96.42-109.57-133.24-172.69-36.81-63.11-65.3-131.04-85.9-203.79-20.59-72.75-31.12-148.14-31.12-226.14 0-78.02 10.08-153.4 29.8-226.15 19.73-72.75 48.21-141.13 84.6-204.67 36.81-63.55 80.64-121.41 131.92-174s108.69-97.73 171.8-135.42c63.11-37.7 131.04-67.06 203.79-87.66s149.02-30.68 228.79-30.68c117.45 0 227.46 21.48 330.01 64.87 102.55 42.95 196.35 106.93 281.38 191.52zm1056.67-243.24c85.9 0 166.11 16.21 241.49 48.65 74.94 32.43 140.24 76.7 196.78 132.36 56.1 55.67 100.37 120.97 132.8 195.91 32.43 75.38 48.65 155.59 48.65 241.49 0 85.46-16.21 165.22-48.65 239.73-32.43 74.51-76.26 139.81-131.93 195.47-55.66 55.67-121.4 99.49-196.78 131.48s-156.46 48.21-243.24 48.21h-368.15v338.34c0 31.56-11.39 57.86-33.74 79.33-22.36 21.48-49.53 31.99-81.09 31.99-32.87 0-60.04-10.96-81.51-32.87-21.48-21.92-32.43-48.21-32.43-78.89V683.99c0-15.78 3.06-30.68 9.2-44.27 6.14-13.58 14.46-25.41 24.55-35.94 10.07-10.52 21.91-18.84 35.5-24.54s28.04-8.33 43.82-8.33h484.73zM8032.23 799.7v775.74h371.66c55.66 0 107.38-10.95 154.71-32.87 47.34-21.92 88.1-50.84 122.72-86.77 34.62-35.51 61.79-76.7 81.51-123.16 19.73-46.46 29.37-94.23 29.37-143.32 0-48.65-9.64-96.86-29.37-143.32-19.72-46.9-47.33-88.53-82.4-124.9-34.62-36.38-75.82-65.74-122.71-88.1-46.46-22.35-97.73-33.31-152.52-33.31h-372.97zm1526.5 1225.42l802.04 1.32c15.78 0 30.69 3.06 44.27 9.2 13.59 6.14 25.42 14.46 35.51 24.54 10.07 10.08 17.96 21.92 23.66 35.51 5.7 14.02 8.33 28.49 8.33 44.26 0 16.22-2.63 31.12-8.33 45.15-5.71 14.02-13.59 26.3-23.66 36.37-10.08 10.08-21.92 17.97-35.51 23.66-13.58 5.71-28.49 8.77-44.27 8.77h-931.76c-28.05-3.51-51.72-15.78-70.56-36.38-18.84-20.59-28.49-45.57-28.49-75.37V684.01c0-15.78 3.06-30.68 9.2-44.7 6.14-14.03 14.46-26.3 24.55-36.38 10.07-10.07 21.91-17.97 35.5-23.66 14.02-5.7 28.49-8.33 44.7-8.33 31.56 0 58.73 10.52 81.09 31.99 22.35 21.48 33.74 48.65 33.74 81.08v1341.12zM5828.6 2941.55c-12.27-28.93-12.27-57.41-.44-85.9s32.43-49.09 62.24-61.36c16.65-5.25 31.12-7.88 43.39-7.88 21.03 0 41.19 6.14 60.04 18.41 18.84 12.26 32.88 29.36 42.52 51.28l523.29 1220.14 520.67-1221.46c9.64-21.92 24.11-38.57 42.95-50.4s39-17.97 60.92-17.97c14.9 0 29.36 2.63 43.39 7.88 28.04 12.27 48.2 32.43 60.48 60.49 12.27 28.04 12.27 56.97 0 86.77l-625.86 1458.13c-9.64 23.68-24.54 41.2-44.7 52.59-20.16 11.4-42.95 17.1-68.37 17.1-20.16-1.76-38.57-8.77-55.66-20.6-17.1-11.83-30.69-28.04-40.33-49.09L5828.6 2941.55zm2545.48 1170.19h-809.92l-120.97 288.82c-9.64 22.35-23.66 39-42.08 50.84-18.4 11.83-38.57 17.97-60.48 17.97-16.65 0-33.31-3.51-49.96-10.52-30.69-12.27-50.4-32.88-59.6-61.36-9.21-28.49-7.45-57.41 5.7-87.22l627.16-1454.18c20.17-46.47 54.78-69.69 103.87-69.69 22.79 0 43.39 5.7 61.36 17.53s31.56 28.93 41.19 50.85l629.8 1455.5c12.27 28.93 14.46 57.86 6.14 86.79-8.33 28.92-27.61 49.52-57.41 61.79-16.65 7.01-32.43 10.52-47.34 10.52-22.78 0-43.38-6.14-62.23-17.97s-33.32-28.49-42.95-50.84l-122.28-288.82zm-717.9-226.15h623.23l-310.3-737.61-312.93 737.61zm1485.75-142c0 71.88 14.46 139.37 43.39 202.48 28.93 63.12 67.93 117.46 116.58 163.48s105.19 82.4 169.61 109.13c64.87 26.74 132.36 40.32 203.79 40.32 71.01 0 137.62-13.58 200.73-40.32 62.68-26.74 117.02-63.55 163.04-110.44 46.01-46.9 82.4-101.68 109.12-164.36 26.74-62.67 40.32-129.73 40.32-201.6v-844.12c0-31.55 10.96-58.29 32.88-79.76 21.91-21.48 48.65-31.99 80.21-31.99 31.55 0 58.29 10.52 80.2 31.99 21.92 21.48 32.88 48.21 32.88 79.76v845.43c0 101.68-19.29 197.66-57.86 287.95-38.56 90.28-91.6 168.73-158.65 235.79-67.06 67.06-145.51 120.09-234.91 159.1-89.41 39-185.39 58.73-287.95 58.73-102.99 0-200.29-19.73-292.33-58.73s-172.68-92.04-242.37-159.1c-69.25-67.06-124.03-145.51-164.35-235.79-40.32-90.29-60.48-186.27-60.48-287.95v-841.48c0-32.43 10.95-59.6 32.87-81.52 21.92-21.91 48.65-32.87 80.21-32.87 31.55 0 58.29 10.96 80.21 32.87 21.91 21.92 32.87 49.09 32.87 81.52v841.48zm1894.66 497.01l802.04 1.32c15.78 0 30.69 3.06 44.27 9.2 13.59 6.14 25.42 14.46 35.51 24.54 10.07 10.08 17.96 21.92 23.66 35.51 5.7 14.02 8.33 28.49 8.33 44.26 0 16.22-2.63 31.12-8.33 45.15-5.71 14.02-13.59 26.3-23.66 36.37-10.08 10.08-21.92 17.97-35.51 23.66-13.58 5.71-28.49 8.77-44.27 8.77h-931.76c-28.05-3.51-51.72-15.78-70.56-36.38-18.84-20.59-28.49-45.57-28.49-75.37V2899.49c0-15.78 3.06-30.68 9.2-44.7 6.14-14.03 14.46-26.3 24.55-36.38 10.07-10.07 21.91-17.97 35.5-23.66 14.02-5.7 28.49-8.33 44.7-8.33 31.56 0 58.73 10.52 81.09 31.99 22.35 21.48 33.74 48.65 33.74 81.08v1341.12zm1563.32-1225.42v1342.44c0 15.77-3.06 30.68-9.2 44.27a119.77 119.77 0 0 1-24.54 35.5c-10.08 10.07-22.36 17.53-36.38 23.22-14.02 5.71-28.93 8.77-44.7 8.77-32 0-58.73-10.96-81.08-32.87-21.92-21.92-32.88-48.21-32.88-78.89V3015.18h-450.98c-15.78 0-30.24-3.06-43.82-9.2-13.59-6.14-25.86-14.46-36.38-24.98-10.52-10.96-18.4-22.79-24.11-36.38-5.7-14.02-8.76-28.49-8.76-44.7 0-31.56 10.96-58.29 32.87-80.65 21.92-21.91 48.65-32.87 80.21-32.87h1129.43c32.43 0 59.6 11.39 81.51 33.75 21.92 22.35 32.88 49.52 32.88 81.08 0 31.99-10.96 58.73-32.88 81.08-21.91 21.91-49.08 32.87-81.51 32.87h-449.68z" stroke="#373435" stroke-width="102.8" stroke-miterlimit="22.9256" fill="#373435"></path></g><defs><path id="B" d="M1686.13 2525.27c33.35 0 60.4 27.04 60.4 60.4 0 33.35-27.05 60.4-60.4 60.4h-256.07c-33.35 0-60.4-27.05-60.4-60.4 0-33.36 27.05-60.4 60.4-60.4h256.07z"></path></defs></svg>