<svg xmlns="http://www.w3.org/2000/svg" xmlns:v="https://vecta.io/nano" viewBox="0 0 480 74.54" fill="#534cda"><path d="M149.8 1.02c4.4-3 11.1 1.1 10 6.4-.5 4.7-6.6 6.8-10.3 4.2-3.8-2.2-3.6-8.5.3-10.6zM.1 2.32h15.7l15.7 41.1 15-41.1h15.4v56.1H50.4v-37.4l-14.6 37.4H26l-14.5-37.4-.1 37.5H0l.1-56.2zm298.7 0h14.4l20.4 56h-12.9l-4.3-12.3h-21.3l-4.3 12.3h-12.4l20.4-56zm6.8 12.8l-7.4 21.3H313l-7.4-21.3zm-184.1-9.4h11.3v11.5h9.4v9.5h-9.4c.1 6.8-.5 13.6.3 20.3 1.8 3.1 6.4 1.4 9.3 1.8v9.5c-4.8-.1-9.9.6-14.6-.8-4-1.2-6.3-5.3-6.3-9.3-.2-7.2 0-14.3-.1-21.5h-6.8v-9.5h6.8c.1-3.8.1-7.7.1-11.5zm-39 12.3c8.1-2.5 17.9-1.4 24.2 4.6 6.6 6.7 7.4 17.7 3.3 25.9-6.3 11.7-23.7 13.3-33.7 5.6-11.9-9.3-8.8-31.9 6.2-36.1zm5.4 8.3c-11.2 3.1-9.2 23.9 3.1 23.3 9.2.1 12.3-11.7 8.5-18.6-2.3-4.1-7.1-6.1-11.6-4.7zm59.8-9.1H159v41.1h-11.3v-41.1zm31 .7c6.6-2 14.2-1.8 20.3 1.7 12.5 7.1 13 28.2.7 35.7-8.4 5.1-20.4 4.7-27.9-1.9-11.1-9.6-7.8-31.2 6.9-35.5zm5.2 8.4c-6.7 1.9-8.5 10.4-6.5 16.3 1.4 5.6 8.2 8.6 13.4 6.2 6.5-2.6 7.6-11.4 5.1-17.1-1.7-4.7-7.4-6.9-12-5.4h0zm30.9-9.1h9.8l1 5c5.8-6.7 16.8-7.3 23.7-2 4.3 3.6 5.5 9.5 5.6 14.8l.1 23.3h-11.3v-22.1c0-3.4-1-7.3-4-9.3-3.6-1.7-8.4-1.1-11.1 2-1.7 2.4-2.5 5.3-2.4 8.3v21.2h-11.3l-.1-41.2zm123 0H348l1 6c2.9-4.9 8.6-6.4 13.9-6.1v10.3c-5.1-.5-12.3.3-13.4 6.5-1 8.1-.1 16.3-.4 24.5h-11.3v-41.2zm30.1 0h10.3l.9 6c3-4.7 8.5-6.5 13.9-6.1v10.3c-3.8.2-8.4-.5-11.2 2.6-2.5 2.5-2.6 6.2-2.6 9.5v18.9h-11.3v-41.2zm34.3 3.2c6.1-4.2 14.2-4.4 21.2-2.6 5.6 1.4 9.6 6.1 10.2 11.8.5 6.2 0 12.4.2 18.7l3.9.9v9.3c-4.1-.3-9.7 1.2-12.5-2.8-.3-.9-.8-2.6-1-3.5-5 7.8-16.5 8.6-23.8 3.9-6.6-4.2-6.2-15.3.4-19.3s14.7-2.8 22-3c-.3-2.1.2-4.7-1.5-6.4-4.2-4-12.2-2.8-14.3 2.9h-10.8c.9-4 2.7-7.7 6-9.9zm7.6 21c-3.6 1.2-4 7-.4 8.6 3.3 1.3 7.1.8 9.9-1.3 2.6-1.9 3.1-5.2 3.5-8.1-4.3.1-8.8-.7-13 .8h0zm26.3-24.2h12l10 29.3 9.9-29.4c4 .1 8 0 12 .1l-17.6 45.7c-1.6 4.2-3.5 9.1-8.1 10.7s-9.6.6-14.5.8v-9.5c2.6.1 5.3 0 7.9-.3 2.7-.6 3.3-3.7 4.4-5.8l-16-41.6z"></path></svg>