<svg xmlns="http://www.w3.org/2000/svg" id="Layer_1" viewBox="0 0 146.33 22"><defs><style>.cls-1{fill:#17d1c6;}.cls-1,.cls-2{stroke-width:0px;}.cls-2{fill:#004881;}</style></defs><path class="cls-1" d="M13.46,7.63h-5.65l-1.77-3.02h9.18L17.9,0H2.73C1.76,0,.86.51.37,1.35-.12,2.19-.12,3.23.37,4.06l9.67,16.61c.76,1.29,2.44,1.72,3.75.96.4-.24.73-.56.97-.96l.31-.55-4.44-7.66s2.82-4.84,2.82-4.84Z"></path><path class="cls-1" d="M24.47,1.35C23.99.51,23.08,0,22.11,0h-.66l-7.26,12.46,2.67,4.61,7.61-13.04c.48-.83.48-1.85,0-2.67Z"></path><path class="cls-2" d="M107.31,12.89c-.14,0-.27.1-.31.23-.59,1.93-1.78,3.22-3.6,3.22-2.39,0-4.19-2.3-4.19-5.33s1.73-5.33,4.19-5.33c1.86,0,3.04,1.24,3.61,3.2.05.14.17.23.31.23h4.19c.17,0,.3-.13.3-.3,0-.02,0-.03,0-.05-.92-4.8-4.64-6.57-8.42-6.57-4.31,0-8.9,2.33-8.9,8.83s4.61,8.83,8.9,8.83c3.78,0,7.49-1.78,8.42-6.59.03-.16-.07-.31-.23-.34-.02,0-.04,0-.07,0h-4.21v-.03ZM91.28,2.67h-4.01c-.19,0-.35.16-.35.35v15.98c0,.18.15.35.35.35h4.01c.19,0,.35-.16.35-.35V3.02c0-.19-.14-.34-.33-.35,0,0-.01,0-.02,0ZM41.52,5.51v-2.49c0-.19-.16-.35-.35-.35h-9.82c-.19,0-.34.16-.35.35v15.98c0,.18.15.35.35.35h4.01c.19,0,.34-.16.35-.35v-6.24c0-.19.16-.35.35-.35h5.13c.19,0,.34-.16.35-.35v-2.48c0-.19-.16-.35-.35-.35h-5.14c-.19,0-.35-.16-.35-.35v-2.71c0-.19.16-.35.35-.35h5.13c.17,0,.33-.15.33-.33h0ZM72.26,3.02v2.49c0,.19.16.35.35.35h2.72c.18,0,.35.15.35.35v12.83c0,.17.13.31.31.31h4.06c.17,0,.31-.14.31-.31h0V6.19c0-.19.16-.35.35-.35h2.72c.19,0,.34-.16.35-.35v-2.48c0-.19-.16-.35-.35-.35h-10.81c-.21,0-.36.15-.36.35ZM55.14,16.51v2.49c0,.19-.16.34-.35.35h-9.82c-.19,0-.35-.16-.35-.35V3.02c0-.18.15-.35.35-.35h4.01c.19,0,.35.16.35.35v12.81c0,.18.15.35.35.35h5.13c.17-.02.33.13.33.33ZM71.6,19.02l-4.52-16.16c-.03-.11-.13-.19-.25-.18h-4.92c-.11,0-.21.08-.25.18l-4.52,16.16c-.05.17.08.31.25.31h4.26c.12,0,.22-.08.25-.2l.43-2.05c.05-.24.26-.42.51-.41h3.05c.25,0,.46.17.51.41l.43,2.05c.02.11.13.2.25.2h4.26c.2,0,.31-.15.26-.31ZM63.17,13.42c-.15,0-.26-.15-.23-.3.33-1.55,1.32-6.26,1.32-6.26.02-.08.05-.13.12-.13.08,0,.12.07.12.13,0,0,1.04,4.97,1.32,6.26.03.15-.08.3-.23.3h-2.41ZM122.58,19.83c-4.31,0-8.9-2.33-8.9-8.83s4.61-8.83,8.9-8.83,8.91,2.33,8.91,8.83-4.61,8.83-8.91,8.83ZM122.58,5.66c-2.48,0-4.19,2.19-4.19,5.33s1.8,5.33,4.19,5.33,4.21-2.3,4.21-5.33c.02-3.14-1.72-5.33-4.21-5.33ZM142.22,3l-.03,7.68c0,.08-.12.12-.15.03l-4.36-7.87c-.06-.1-.16-.17-.28-.16h-2.72c-.18,0-.33.15-.33.33v16.01c0,.18.15.33.33.33h3.45c.18,0,.33-.15.33-.33v-7.76c0-.08.12-.12.15-.03l4.32,7.96c.06.1.16.17.28.17h2.79c.18,0,.33-.15.33-.33V3c0-.18-.15-.33-.33-.33h-3.45c-.18,0-.33.15-.33.33h0Z"></path></svg>