<svg xmlns="http://www.w3.org/2000/svg" xmlns:v="https://vecta.io/nano" viewBox="0 0 450 66" fill="#336aea"><path d="M118.64 41.97a.33.33 0 0 1 .24-.56h1.33c10.82-1.1 19.87-8.09 19.87-20.5 0-14.29-11.54-20.9-24.75-20.9H53.45a1.51 1.51 0 0 0-1.51 1.51v63.43a1.51 1.51 0 0 0 1.51 1.51h19.76a1.51 1.51 0 0 0 1.51-1.51V44.69a1.5 1.5 0 0 1 1.51-1.5h12.84a6.23 6.23 0 0 1 4.66 2.09L112 65.94l1.13.51h26.08a1.5 1.5 0 0 0 1.07-2.56l-21.66-21.92zM110.4 28.3H76.22a1.51 1.51 0 0 1-1.51-1.51v-9.56a1.51 1.51 0 0 1 1.51-1.51h33.69c4.83 0 8 2.37 8 6.11 0 4.34-3 6.51-7.5 6.51zM368.41.01h-19.76a1.51 1.51 0 0 0-1.51 1.51v42.1a1.51 1.51 0 0 0 1.51 1.51h19.76a1.5 1.5 0 0 0 1.5-1.51V1.52a1.5 1.5 0 0 0-1.5-1.51zm0 54.09h-19.76a1.51 1.51 0 0 0-1.51 1.51v9.34a1.52 1.52 0 0 0 1.51 1.51h19.76a1.51 1.51 0 0 0 1.5-1.51v-9.34a1.5 1.5 0 0 0-1.5-1.51zm81.37 10.37L424.35 30.8a1.94 1.94 0 0 1 .12-2.49l24-26.34a1.17 1.17 0 0 0-.87-2h-20.77a1.93 1.93 0 0 0-1.44.64l-23.18 25.52h0a.44.44 0 0 1-.31.15h-.83a.39.39 0 0 1-.4-.4V1.4a1.39 1.39 0 0 0-1.39-1.39h-19a1.39 1.39 0 0 0-1.39 1.39v63.59a1.27 1.27 0 0 0 1.27 1.27h19.22a1.27 1.27 0 0 0 1.27-1.27V53.15a2 2 0 0 1 .53-1.34l8.43-9a.31.31 0 0 1 .25-.12H411a.29.29 0 0 1 .22.12l17 22.68a2 2 0 0 0 1.57.79h19.09a1.12 1.12 0 0 0 .89-1.8zM170.81 15.23h19.33a1.51 1.51 0 0 0 1.51-1.51V1.51A1.52 1.52 0 0 0 190.14 0h-40a1.51 1.51 0 0 0-1.51 1.51v63.43a1.51 1.51 0 0 0 1.51 1.51h40a1.51 1.51 0 0 0 1.51-1.51V52.77a1.52 1.52 0 0 0-1.51-1.51h-19.47a1.5 1.5 0 0 1-1.5-1.51v-7.89a1.64 1.64 0 0 1 1.64-1.64h19.33a1.52 1.52 0 0 0 1.51-1.51V26.83a1.51 1.51 0 0 0-1.51-1.5h-19.33a1.65 1.65 0 0 1-1.64-1.65v-6.87a1.64 1.64 0 0 1 1.64-1.64zm51.95 0h19.33a1.5 1.5 0 0 0 1.5-1.51V1.51a1.51 1.51 0 0 0-1.5-1.51h-40a1.51 1.51 0 0 0-1.5 1.51v63.43a1.51 1.51 0 0 0 1.5 1.51h40a1.5 1.5 0 0 0 1.5-1.51V52.77a1.51 1.51 0 0 0-1.5-1.51h-19.47a1.5 1.5 0 0 1-1.5-1.51v-7.89a1.64 1.64 0 0 1 1.64-1.64h19.33a1.51 1.51 0 0 0 1.5-1.51V26.83a1.5 1.5 0 0 0-1.5-1.5h-19.33a1.65 1.65 0 0 1-1.64-1.65v-6.87a1.64 1.64 0 0 1 1.64-1.64zm-200.6 0h19.32A1.51 1.51 0 0 0 43 13.68V1.51A1.51 1.51 0 0 0 41.49 0h-40A1.51 1.51 0 0 0 0 1.51v63.43a1.51 1.51 0 0 0 1.51 1.51H19a1.51 1.51 0 0 0 1.51-1.51V41.87a1.65 1.65 0 0 1 1.65-1.64h19.33a1.5 1.5 0 0 0 1.5-1.51V26.84a1.51 1.51 0 0 0-1.5-1.51H22.16a1.65 1.65 0 0 1-1.65-1.64v-6.87a1.65 1.65 0 0 1 1.65-1.65zM313.9.01h-59.83a1.51 1.51 0 0 0-1.51 1.51v63.43a1.51 1.51 0 0 0 1.51 1.51h19.76a1.51 1.51 0 0 0 1.51-1.51v-21a.76.76 0 0 1 .77-.76H314c15.19 0 26.7-7.92 26.7-21.9S329.19.01 313.9.01zM311 28.3h-34.16a1.51 1.51 0 0 1-1.51-1.51v-9.56a1.5 1.5 0 0 1 1.51-1.5h33.69c4.83 0 8 2.36 8 6.11-.01 4.3-2.97 6.46-7.53 6.46z"></path></svg>