<svg xmlns="http://www.w3.org/2000/svg" xmlns:v="https://vecta.io/nano" width="469.119" height="86.808" viewBox="0 0 41567.68 7691.77" fill-rule="evenodd"><path d="M846.08 0h5450.18v670.29h868.08v1571.33H4757.88V1494.4H2329.49v4648.04h3329.46v-747.22H3900.82V3911.8h3230.53v1483.42 1593.3h-791.16v703.25H824.1v-736.2H-.01V703.25h846.08V0z" fill="#97abbb"></path><path d="M12473.94 2848.82l895.74-213.26c-956.59-2080.23-4036.39-1509.41-4371.96 586.47-203.42 1554.95 498.59 2531.57 1770.09 2868.44 932.65 132.35 1900.63-116.18 2719.15-767.78l-10.65-1620.83-2004.72-21.3 31.98 607.8 1023.67 95.95 32.02 565.17c-1188.71 644.87-2184.55 325.48-2633.85-618.48-505.86-1780.91 1838.14-3021.42 2548.52-1482.18zm29093.74 2467.41h-2714.96V4016.9h2419.42v-710.04h-2419.42V2275.45h2714.96v-859.58H37804.5v94.34 765.24 1031.41 710.04 1299.33 710.04 1.88h1048.22v-1.88h2714.96v-710.04zm-5569.94-3833.21h891.02V6074.3h-891.02-209.64l-1980.37-3272.63V6074.3h-891.02V1483.02h891.02v38.78l230.14-38.78 1959.87 3156.32V1483.02zm-6295.63-59.98c1308.9 0 2369.99 1061.08 2369.99 2369.99 0 1308.94-1061.08 2370.02-2369.99 2370.02-1308.94 0-2370.02-1061.08-2370.02-2370.02 0-1308.9 1061.08-2369.99 2370.02-2369.99zm-15.44 814.03c736.94 0 1334.39 696.65 1334.39 1555.96 0 859.37-597.45 1555.99-1334.39 1555.99-737 0-1334.42-696.62-1334.42-1555.99 0-859.31 597.42-1555.96 1334.42-1555.96zm-6574.19 3795.67h3673.3v-710.98h-2628.29l2464.23-3071.72v-829.47h-464.87-2761.81v829.47h2151.13l-2433.68 3071.72v710.98zm-4038.67-4551.16h995.81v3825.94h2400.39v712.79h-2400.39-995.81v-712.79-3825.94zm-4619.94 9.44h29.47v-61.19h418.62 1833.85c409.61 0 781.68 167.25 1051.07 436.7 269.46 269.39 436.7 641.46 436.7 1051.07 0 409.58-167.25 781.71-436.7 1051.1-269.39 269.39-641.49 436.7-1051.07 436.7H15418.2v1593.93h-964.33V1491.01zm964.33 776.05v1301.1h1317.61c178.47 0 341.02-73.34 459.11-191.43 118.08-118.08 191.43-280.68 191.43-459.11 0-178.47-73.31-341.06-191.43-459.14-118.08-118.12-280.68-191.43-459.11-191.43H15418.2z" fill="#1d2b36"></path></svg>