<svg xmlns="http://www.w3.org/2000/svg" xmlns:v="https://vecta.io/nano" viewBox="0 0 449.77 149.31"><path d="M111.45 1.09c-4.36-2.32-17.14-.87-31.96 3.78-26.43 17.72-48.51 44.74-50.26 87.16-.29 1.16-2.91 0-3.2-.29-7.26-13.66-10.17-27.89-4.07-48.52 1.16-2.03-2.32-4.07-3.2-3.78C17.6 40.6 11.79 46.7 8.3 52.8c-17.72 31.09-6.1 70.89 25.28 88.32 31.09 17.43 70.89 6.1 88.32-25.28 19.76-36.61 1.16-108.37-10.46-114.76z" fill="#81b441"></path><path d="M184.52 16.08c-15.27 0-26.25 11.34-26.25 26.97s10.98 26.85 26.85 26.85c7.99 0 14.32-2.51 19.33-7.64 1.55-1.67 1.67-3.22 1.67-3.82 0-2.51-1.79-4.3-4.53-4.3-1.31 0-2.51.48-3.7 1.67-2.86 2.63-6.68 5.37-12.77 5.37-8.71 0-15.63-6.44-16.11-14.8h34.48c3.7 0 5.49-1.79 5.49-5.37 0-.95 0-1.79-.12-3.34-1.91-13.6-10.98-21.6-24.34-21.6zm0 8.47c8.35 0 13.6 5.37 13.84 13.84h-29.47c.95-7.99 7.52-13.84 15.63-13.84zm57.39-8.47c-7.04 0-13.84 3.94-16.47 9.55v-3.46c0-5.37-4.18-5.49-5.01-5.49-2.51 0-5.01 1.55-5.01 5.49v41.28c0 5.49 4.3 5.85 5.13 5.85s5.37-.36 5.37-5.85V41.26c0-9.66 5.49-16.35 13.36-16.35s11.34 5.01 11.34 15.15v23.27c0 5.49 4.3 5.85 5.37 5.85s5.13-.36 5.13-5.85V36.72c-.24-9.9-5.13-20.64-19.21-20.64zm66.46.6c-2.51 0-4.18 1.31-5.13 4.18l-14.32 36.15-14.32-36.15c-1.19-2.86-2.86-4.18-5.37-4.18-2.86 0-5.37 2.39-5.37 5.01 0 .72 0 1.55.72 2.98l16.47 39.02c2.03 4.65 5.13 5.61 7.52 5.61s5.61-.95 7.52-5.61l16.7-39.14c.48-1.31.72-2.39.72-2.86 0-2.98-2.15-5.01-5.13-5.01zm30.55-.6c-6.68 0-13.01 1.79-17.66 5.37-1.55 1.19-2.39 2.51-2.39 4.18 0 2.39 1.79 4.18 3.94 4.18.95 0 2.15-.36 3.22-1.19 3.94-2.63 7.64-3.82 11.81-3.82 7.88 0 12.17 3.94 12.17 10.86v1.19c-17.54 0-35.08 2.15-35.08 17.3 0 10.86 9.31 15.87 18.49 15.87 7.28 0 13.13-2.86 16.94-8.47v2.63c0 3.94 2.63 5.37 5.01 5.37.48 0 4.65-.12 4.65-5.37v-27.8c.12-12.89-7.64-20.28-21.12-20.28zm9.07 28.28h2.15v2.51c0 8.83-5.61 14.44-14.32 14.44-2.39 0-10.14-.48-10.14-7.64 0-8.35 12.65-9.31 22.31-9.31zm39.49-18.14c4.65 0 4.77-3.46 4.77-4.3 0-2.15-1.31-4.3-4.77-4.3h-9.55V7.85c0-4.3-2.86-5.85-5.13-5.85-.84 0-5.13.36-5.13 5.85v45.34c0 10.5 5.13 15.99 15.03 15.99 2.51 0 5.01-.48 6.68-1.19 1.79-.95 2.86-2.51 2.86-4.18 0-2.51-1.79-4.18-4.18-4.18-.48 0-1.19.12-1.79.36-.84.12-1.55.36-2.15.36-3.94 0-5.85-2.63-5.85-8.11V26.23h9.19zm34.84-10.14c-15.87 0-27.32 11.34-27.32 26.85 0 7.52 2.86 14.44 7.88 19.33 5.01 4.77 11.93 7.64 19.45 7.64 15.63 0 27.44-11.69 27.44-26.97s-11.69-26.85-27.44-26.85zm0 44.74c-10.86 0-16.7-9.19-16.7-18.02 0-12.29 8.71-18.02 16.7-18.02s16.7 5.61 16.7 18.02c-.24 12.41-8.71 18.02-16.7 18.02z" fill="#121112"></path><path d="M178.47 143.91c-3.8 0-7.1-1-10.2-3.1-3.1-2-5.6-4.7-7.3-8.2-1.7-3.3-2.7-7.3-2.7-11.4v-1.8c0-4.2.8-8 2.5-11.4 1.7-3.5 4-6.3 7-8.2 2.9-2 6.3-2.9 9.8-2.9 5.2 0 9.5 1.8 12.7 5.6 3.2 3.6 4.9 8.5 4.9 14.4v2.2c0 .7-.6 1.3-1.3 1.3h-30.8v1c0 3.2.7 6.3 2.1 9.1s3.2 4.9 5.6 6.4 4.9 2.4 7.7 2.4 5-.4 6.8-1.3c1.8-.8 3.5-2.2 4.9-4 .4-.6 1.3-.7 1.8-.3l1.5 1.1c.6.4.7 1.3.3 1.8-3.4 4.8-8.6 7.3-15.3 7.3zm-14.9-28.5h27.1c-.1-2.4-.7-4.6-1.7-6.7-1.1-2.2-2.7-4-4.6-5.3-2-1.3-4-1.8-6.6-1.8-3.8 0-7 1.4-9.6 4.2-2.5 2.5-4 5.9-4.6 9.6zm39.5 27.7h-2.1c-.7 0-1.3-.6-1.3-1.3v-60.8c0-.7.6-1.3 1.3-1.3h2.1c.7 0 1.3.6 1.3 1.3v61c0 .5-.6 1.1-1.3 1.1zm25.8.8c-3.8 0-7.1-1-10.2-3.1-3.1-2-5.6-4.7-7.3-8.2-1.7-3.3-2.7-7.3-2.7-11.4v-1.8c0-4.2.8-8 2.5-11.4 1.7-3.5 4-6.3 7-8.2 2.9-2 6.3-2.9 9.8-2.9 5.2 0 9.5 1.8 12.7 5.6 3.2 3.6 4.9 8.5 4.9 14.4v2.2c0 .7-.6 1.3-1.3 1.3h-30.8v1c0 3.2.7 6.3 2.1 9.1s3.2 4.9 5.6 6.4 4.9 2.4 7.7 2.4 4.9-.4 6.8-1.3c1.8-.8 3.5-2.2 4.9-4 .4-.6 1.3-.7 1.8-.3l1.5 1.1c.6.4.7 1.3.3 1.8-3.4 4.8-8.6 7.3-15.3 7.3zm-15.1-28.5h27.1c-.1-2.4-.7-4.6-1.7-6.7-1.1-2.2-2.7-4-4.6-5.3-2-1.3-4.2-1.8-6.6-1.8-3.8 0-7 1.4-9.6 4.2-2.3 2.5-3.9 5.9-4.6 9.6zm96.8 27.7h-2.1c-.7 0-1.3-.6-1.3-1.3v-27.8c0-4.3-.8-7.5-2.5-9.6-1.7-2-4.2-2.9-7.8-2.8-4.9.1-8.5 2-11.3 5.7-1.5 2.1-2.5 4.2-2.7 6.1v28.5c0 .7-.6 1.3-1.3 1.3h-2.1c-.7 0-1.3-.6-1.3-1.3v-28.9c0-3.9-.8-6.8-2.5-8.8-1.5-1.8-4.3-2.7-8-2.7-4.3 0-7.7 1.8-10.5 5.7-1.7 2.2-2.8 4.9-3.3 7.5v26.9c0 .7-.6 1.3-1.3 1.3h-2.2c-.7 0-1.3-.6-1.3-1.3v-43c0-.7.6-1.3 1.3-1.3h2.2c.7 0 1.3.6 1.3 1.3v5.2c1.1-1.7 2.5-2.9 4.2-4 2.9-2.1 6.1-3.1 9.8-3.1 3.9 0 7.1.8 9.6 2.7 1.8 1.3 3.2 3.1 4 5.4 1.3-2 3.1-3.6 5.2-5 3.1-2 6.6-2.9 10.3-2.9 5 0 8.8 1.5 11.3 4.3s3.8 7.1 3.8 12.7v28c-.2.6-.9 1.2-1.5 1.2zm24.8.8c-3.8 0-7.1-1-10.2-3.1-3.1-2-5.6-4.7-7.3-8.2-1.7-3.3-2.7-7.3-2.7-11.4v-1.8c0-4.2.8-8 2.5-11.4s4-6.3 7-8.2c2.9-2 6.3-2.9 9.8-2.9 5.2 0 9.5 1.8 12.7 5.6 3.2 3.6 4.9 8.5 4.9 14.4v2.2c0 .7-.6 1.3-1.3 1.3h-30.8v1c0 3.2.7 6.3 2.1 9.1s3.2 4.9 5.6 6.4 4.9 2.4 7.7 2.4 5-.4 6.8-1.3c1.8-.8 3.5-2.2 4.9-4 .4-.6 1.3-.7 1.8-.3l1.5 1.1c.6.4.7 1.3.3 1.8-3.4 4.8-8.6 7.3-15.3 7.3zm-15.1-28.5h27.1c-.1-2.4-.7-4.6-1.7-6.7-1.1-2.2-2.7-4-4.6-5.3-2-1.3-4.2-1.8-6.6-1.8-3.8 0-7 1.4-9.6 4.2-2.3 2.5-3.9 5.9-4.6 9.6zm68 27.7h-2.1c-.7 0-1.3-.6-1.3-1.3v-28c0-4.2-.8-7.4-2.5-9.3-1.5-1.8-4.2-2.8-7.8-2.8-3.3 0-6.3 1.1-8.7 3.6-2.5 2.4-4.2 5.6-5 9.3v27.4c0 .7-.6 1.3-1.3 1.3h-2.1c-.7 0-1.3-.6-1.3-1.3v-43c0-.7.6-1.3 1.3-1.3h2.1c.7 0 1.3.6 1.3 1.3v5c1.1-1.5 2.5-2.9 4-4 2.9-2.1 6.3-3.1 9.8-3.1 5 0 8.8 1.5 11.3 4.3 2.4 2.8 3.6 7.1 3.8 12.7v28c-.3.6-.8 1.2-1.5 1.2zm21 .8c-3.5 0-6.1-1-7.7-3.1-1.5-2-2.4-4.9-2.4-8.9v-29.4h-6.6c-.7 0-1.3-.6-1.3-1.3v-2.1c0-.7.6-1.3 1.3-1.3h6.6v-10.3c0-.7.6-1.3 1.3-1.3h2.2c.7 0 1.3.6 1.3 1.3v10.3h8.4c.7 0 1.3.6 1.3 1.3v2.1c0 .7-.6 1.3-1.3 1.3h-8.4v29.2c0 2.8.4 4.7 1.3 6 1.1 1.7 3.6 1.8 8 1.3.7-.1 1.4.4 1.5 1.1l.4 2c.1.7-.3 1.3-.8 1.5-1.1.2-2.7.3-5.1.3zm24.3 0c-5 0-9.2-1.3-12.4-3.5-3.3-2.4-5-5.6-5-9.5 0-.7.6-1.3 1.3-1.3h2.1c.7 0 1.3.6 1.3 1.3.1 2.7 1.3 4.6 3.3 6 2.2 1.5 5.3 2.2 9.2 2.2 3.5 0 6.4-.8 8.5-2.4 2.1-1.5 3.1-3.3 3.1-5.4 0-4.6-4-7.5-12.3-9.3-5.6-1.3-9.5-2.7-11.7-4.6-2.4-2.1-3.6-4.9-3.6-8.4s1.5-6.6 4.5-8.8c2.9-2.2 6.7-3.3 11.2-3.3 4.9 0 8.9 1.3 12 3.6 3.1 2.5 4.7 5.9 4.7 9.9 0 .7-.6 1.3-1.3 1.3h-2.2c-.7 0-1.3-.6-1.3-1.3 0-2.5-1-4.5-3.2-6.1-2.2-1.7-5.2-2.7-8.7-2.7s-6.1.7-8.1 2.2c-1.8 1.4-2.8 3.1-2.8 5.2 0 1.7.3 2.9 1 3.8.7 1 1.8 1.8 3.5 2.5 1.8.8 4.3 1.7 7.8 2.5 3.6.8 6.6 1.8 8.8 3.1s3.9 2.7 5 4.5c1.1 1.7 1.5 3.8 1.5 6.3 0 3.8-1.5 7-4.7 9.2-2.8 1.9-6.7 3-11.5 3z" fill="#84b840"></path></svg>