<svg xmlns="http://www.w3.org/2000/svg" xmlns:xlink="http://www.w3.org/1999/xlink" xmlns:v="https://vecta.io/nano" viewBox="0 0 432.91 71.73"><style>.N{fill-opacity:.2}</style><defs><linearGradient id="A" x1="-159798.37" y1="133755.603" x2="-167285.779" y2="142623.551" xlink:href="#H"><stop offset="0" stop-color="#fff"></stop><stop offset="1"></stop></linearGradient><linearGradient id="B" x1="11181.815" y1="-7029.904" x2="9040.521" y2="-2609.763" xlink:href="#H"><stop offset="0" stop-color="#fff"></stop><stop offset="1"></stop></linearGradient><linearGradient id="C" x1="9696.225" y1="-7421.458" x2="6157.349" y2="-116.603" xlink:href="#H"><stop offset="0" stop-color="#fff"></stop><stop offset="1"></stop></linearGradient><linearGradient id="D" x1="399252.4" y1="753014.13" x2="169175.02" y2="293124.51" gradientTransform="translate(-435.68 -336.19) scale(.03 -.03)" xlink:href="#H"><stop offset="0" stop-color="#fff"></stop><stop offset="1"></stop></linearGradient><linearGradient id="E" x1="25241.895" y1="-23235.979" x2="12465.879" y2="7941.861" xlink:href="#H"><stop offset="0" stop-color="#fff"></stop><stop offset="1"></stop></linearGradient><linearGradient id="F" x1="37223.108" y1="-31472.003" x2="20084.701" y2="3879.117" xlink:href="#H"><stop offset="0" stop-color="#fff"></stop><stop offset="1"></stop></linearGradient><linearGradient id="G" x1="10693.389" y1="-8212.905" x2="8963.205" y2="-5831.569" xlink:href="#H"><stop offset="0" stop-color="#fff"></stop><stop offset="1"></stop></linearGradient><linearGradient id="H" gradientUnits="userSpaceOnUse"></linearGradient></defs><path d="M27.21 46.45l11.84-6.83-11.84-6.83-11.83 6.83 11.83 6.83z" fill="#f59c18"></path><path d="M28.4 30.73V17.07l11.83 6.83v13.66L28.4 30.73z" fill="#7c47ad"></path><path d="M26.03 17.07L14.2 23.9v13.66l11.83-6.83V17.07z" fill="#3ca350"></path><path d="M27.21 0L1.18 15.01l11.83 6.83 14.2-8.18 14.2 8.2 11.84-6.83L27.21 0z" fill="#f59c18"></path><path d="M0 63.53l11.83 6.83V53.97l14.19 8.21V48.52l-14.18-8.21-.01-16.4L0 17.08v46.45z" fill="#d54036"></path><path d="M54.43 47.13l.02-30.05-11.84 6.83-.01 16.39-14.2 8.2v13.67l26.03-15.04z" fill="#3d8cbd"></path><path d="M26.03 64.9L14.2 71.73V58.07l11.83 6.83z" fill="#3ca350"></path><path d="M27.21 46.45l11.84-6.83-11.84-6.83-11.83 6.83 11.83 6.83z" fill="url(#A)" class="N"></path><path d="M28.4 30.73V17.07l11.83 6.83v13.66L28.4 30.73z" fill="url(#B)" class="N"></path><path d="M26.03 17.07L14.2 23.9v13.66l11.83-6.83V17.07z" fill="url(#C)" class="N"></path><path d="M27.21 0L1.18 15.01l11.83 6.83 14.2-8.18 14.2 8.2 11.84-6.83L27.21 0z" fill="url(#D)" class="N"></path><path d="M0 63.53l11.83 6.83V53.97l14.19 8.21V48.52l-14.18-8.21-.01-16.4L0 17.08v46.45z" fill="url(#E)" class="N"></path><path d="M54.43 47.13l.02-30.05-11.84 6.83-.01 16.39-14.2 8.2v13.67l26.03-15.04z" fill="url(#F)" class="N"></path><path d="M26.03 64.9L14.2 71.73V58.07l11.83 6.83z" fill="url(#G)" class="N"></path><path d="M100.41 31.89c0 7.09-4.51 11.17-12.39 11.17h-7.16v9.45h-5.3V21.28h12.46c7.88-.07 12.39 3.8 12.39 10.6zm-5.08.14c0-4.08-2.72-6.09-7.59-6.09h-6.95v12.39h7.02c4.8 0 7.52-2.08 7.52-6.3h0zm22.84-3.5v4.94c-4.8-.29-7.81 2.51-8.24 6.66v12.39h-5.16V28.74h5.16v4.73c1.65-3.22 4.44-4.94 8.24-4.94h0zm26.29 12.03c0 7.16-5.01 12.1-12.39 12.1s-12.39-4.94-12.39-12.1 5.01-12.03 12.39-12.03 12.39 4.87 12.39 12.03zm-19.63.07c0 4.58 3.01 7.73 7.3 7.73s7.23-3.15 7.23-7.73-3.01-7.73-7.23-7.73c-4.23.07-7.3 3.15-7.3 7.73zm47.2-21.27v33.09h-5.16v-4.08c-1.72 2.72-4.51 4.3-8.31 4.3-6.88 0-11.39-4.94-11.39-12.18s4.58-12.03 11.32-12.03c3.87 0 6.66 1.58 8.45 4.3V19.37h5.09zm-5.16 21.27c0-4.58-3.01-7.81-7.3-7.81s-7.3 3.22-7.38 7.81c.07 4.51 3.01 7.73 7.38 7.73s7.3-3.22 7.3-7.73zm32.16-11.89v23.71h-5.16v-4.66c-1.58 3.29-4.58 4.8-8.52 4.8-5.44 0-8.74-3.51-8.74-9.17V28.74h5.16v13.32c0 3.58 2.08 5.73 5.51 5.73 4.08-.14 6.52-3.22 6.52-7.38V28.74h5.23zm15.76 4.3c-4.08 0-7.09 3.08-7.09 7.59s2.94 7.59 7.09 7.59c3.01 0 5.44-1 7.02-2.86l2.86 2.86c-2.15 2.79-5.59 4.44-10.1 4.44-7.09 0-11.96-4.87-11.96-12.03s4.94-12.1 11.96-12.1c4.3 0 7.59 1.36 9.81 3.87l-2.79 3.29c-1.65-1.65-3.94-2.72-6.8-2.65h0zM243 50.87c-1.86 1.07-3.87 1.72-5.87 1.72-3.58 0-6.66-2.01-6.66-6.88V33.39h-3.37v-3.8h3.37v-6.52h5.09v6.52h7.02v3.87h-7.09v11.39c0 2.43.93 3.22 2.51 3.22 1.07 0 2.22-.36 3.58-1.07.07 0 1.43 3.87 1.43 3.87h0zm9.81-28.93c0 1.72-1.29 3.01-3.01 3.01s-3.01-1.29-3.01-3.01 1.29-3.08 3.01-3.08 3.01 1.29 3.01 3.08zm-.42 6.8v23.71h-5.08V28.74h5.08zm29.57 11.82c0 7.16-5.01 12.1-12.39 12.1s-12.39-4.94-12.39-12.1 5.01-12.03 12.39-12.03 12.39 4.87 12.39 12.03zm-19.55.07c0 4.58 3.01 7.73 7.3 7.73s7.23-3.15 7.23-7.73-3.01-7.73-7.23-7.73c-4.37.07-7.3 3.15-7.3 7.73zm47.2-2.94v14.82h-5.16V39.12c0-3.58-2.15-5.73-5.73-5.73-3.94.07-6.37 2.72-6.73 6.45v12.6h-5.16V28.73h5.16v4.51c1.72-3.29 4.73-4.73 8.74-4.73 5.59 0 8.88 3.51 8.88 9.17h0zm21.56-9.88c-4.8 0-8.52 3.8-8.52 8.74s3.65 8.88 8.52 8.88c2.58 0 5.59-1.43 7.81-3.65l4.8 5.16c-3.37 3.51-8.31 5.8-12.96 5.8-9.45 0-16.4-6.88-16.4-16.04s7.16-15.76 16.69-15.76c4.66 0 9.45 2.01 12.6 5.37l-4.73 5.66c-2.15-2.51-5.09-4.15-7.81-4.15h0zm31.22.21v7.3c-4.44-.43-7.38 1.5-7.81 4.87v12.32h-7.95V28.3h7.95v4.01c1.72-2.79 4.44-4.3 7.81-4.3h0zm23.85 8.74v15.76h-7.81V49.8c-1.5 2.01-4.01 3.08-7.3 3.08-5.16 0-8.31-3.15-8.31-7.59s3.22-7.23 9.24-7.38h6.3v-.29c0-2.29-1.58-3.58-4.58-3.58-2.01 0-4.66.64-7.23 1.93l-2.22-5.37c3.8-1.72 7.31-2.65 11.24-2.65 6.73.07 10.6 3.29 10.67 8.81h0zm-7.81 7.52V42.2h-4.73c-2.22 0-3.37.79-3.37 2.51s1.22 2.72 3.22 2.72c2.36 0 4.37-1.29 4.87-3.15h0zm28.44 6.88c-1.72 1.07-4.15 1.58-6.52 1.58-4.73.07-8.02-2.72-8.02-7.73V34.77h-3.37v-5.23h3.37v-6.73h7.88v6.66h6.23v5.23h-6.23v9.1c0 1.79.79 2.58 2.22 2.51.79 0 1.79-.36 3.01-.79-.07.07 1.43 5.66 1.43 5.66h0zm25.99-8.67H416.1c.79 2.72 2.72 4.23 5.44 4.23a7.85 7.85 0 0 0 5.66-2.43l4.15 4.15c-2.43 2.72-6.09 4.3-10.53 4.3-7.88 0-12.75-4.87-12.75-12.25s5.01-12.46 12.6-12.46c8.38.07 12.75 5.66 12.18 14.47h0zm-7.66-4.23c0-2.72-1.79-4.66-4.44-4.66s-4.3 1.86-4.8 4.66h9.24z" fill="#373435"></path></svg>