<?xml version="1.0" encoding="UTF-8"?> <svg xmlns="http://www.w3.org/2000/svg" xmlns:v="https://vecta.io/nano" viewBox="0 0 686 134.57"><defs><linearGradient id="A" x1="4877.96" y1="-10407.18" x2="4265.41" y2="-9384.14" gradientTransform="translate(-93.37 -241.56) scale(.03 -.03)" href="#F"><stop offset="0" stop-color="#0877d2"></stop><stop offset="1" stop-color="#2e5180"></stop></linearGradient><linearGradient id="B" x1="4673.01" y1="-8189" x2="3779.92" y2="-9149.45" gradientTransform="translate(-93.37 -241.56) scale(.03 -.03)" href="#F"><stop offset="0" stop-color="#ec268f"></stop><stop offset="1" stop-color="#a8518a"></stop></linearGradient><linearGradient id="C" x1="4930.37" y1="-10769.38" x2="4607.73" y2="-9762.24" gradientTransform="translate(-93.37 -241.56) scale(.03 -.03)" href="#F"><stop offset="0" stop-color="#5cc6d0"></stop><stop offset="1" stop-color="#044c87"></stop></linearGradient><linearGradient id="D" x1="5473.79" y1="-11749.23" x2="4827.22" y2="-11006.3" gradientTransform="translate(-93.37 -241.56) scale(.03 -.03)" href="#F"><stop offset="0" stop-color="#0985b2"></stop><stop offset="1" stop-color="#2fafc8"></stop></linearGradient><linearGradient id="E" x1="-.421" y1="58.249" x2="23.117" y2="84.711" href="#F"><stop offset="0" stop-color="#044173"></stop><stop offset="1" stop-color="#0667b6"></stop></linearGradient><linearGradient id="F" gradientUnits="userSpaceOnUse"></linearGradient></defs><g image-rendering="optimizeQuality" shape-rendering="geometricPrecision"><g fill-rule="evenodd"><path d="M80.43 25.94c51.97 39.24 33.08 109.02-30.87 108.08-44-4.55-63.17-54.83-38.59-88.64C22.82 31.23 42.47 13.59 55.29 0c16.48 27.85 3.6 56.83-22.27 62.13-4.06 21.94 2.55 39.17 20.94 49.38 29.57-9.36 40.2-50.33 26.47-85.57h0z" fill="url(#A)"></path><path d="M.35 83.45C1.1 70.93 16.22 65.6 33.02 62.13 51.69 58.29 74.95 35.94 55.29 0 40.74 14.65 25.81 26.87 10.97 45.38 1.72 58.31-1.08 71.1.35 83.45h0z" fill="url(#B)"></path><path d="M81.21 27c16.87 61.68-17.17 102.74-72.39 82.29C57.66 178.85 164.5 89.39 81.21 27z" fill="url(#C)"></path><path d="M105.42,103.11c-16.6,10.73-33.59,15.84-51.46,8.4-14.27,3.91-29.14,3.4-44.61-1.47l5.33,6.65c26.45,29.5,73.95,20.6,90.74-13.58h0Z" fill="url(#D)"></path><path d="M34.68 114.58c-14.89-12.26-20.61-28.63-17.9-48.03C7.54 69.89 1.44 74.94.3 82.69c.44 9.47 3.51 18.58 9.06 27.35 8.15 2.27 16.46 4.14 25.32 4.54h0z" fill="url(#E)"></path><path d="M53.97,111.51c-13.39,5.55-28.83,6.06-44.61-1.47,14.71,4.44,29.53,5.76,44.61,1.47Z" fill="#a9dde5"></path></g><path d="M159.56 46.32c-2.21 0-3.94.77-5.19 2.32s-1.87 3.68-1.87 6.39v.5h12.04v9.21H152.5v34.28h-12.12V64.74h-6.22v-9.21h6.22v-.25c0-5.53 1.37-9.88 4.11-13.03s6.57-4.73 11.5-4.73c3.43 0 6.45.55 9.05 1.66l-.5 8.13c-1.72-.66-3.38-1-4.98-1h0zm50.26 29.21v4.9h-34.2c.17 3.32 1.44 5.96 3.82 7.93 2.38 1.96 5.51 2.95 9.38 2.95 5.75 0 10.43-2.3 14.03-6.89l6.06 5.64c-2.27 3.32-5.26 5.84-8.96 7.55-3.71 1.72-7.77 2.57-12.2 2.57-6.81 0-12.49-1.85-17.06-5.56-4.56-3.71-6.85-8.74-6.85-15.11v-4.4c0-6.47 2.27-11.55 6.81-15.23s10.13-5.52 16.77-5.52c6.25 0 11.55 1.81 15.89 5.44 4.34 3.62 6.52 8.87 6.52 15.73h0zM187.49 62.5c-3.38 0-6.13.93-8.26 2.78s-3.31 4.41-3.53 7.68h22.99c-.22-3.26-1.33-5.82-3.32-7.68-1.99-1.85-4.62-2.78-7.89-2.78h0zm44.28 37.77c-4.87 0-9.25-.84-13.16-2.53-3.9-1.69-6.79-4.05-8.67-7.1l6.39-5.56c1.49 2.16 3.65 3.79 6.47 4.9s5.73 1.66 8.72 1.66c2.66 0 4.86-.4 6.6-1.2s2.61-1.87 2.61-3.2v-.25c0-.77-.25-1.44-.75-1.99s-1.31-1.04-2.45-1.45c-1.13-.41-2.2-.73-3.2-.95l-4.23-.91c-5.92-1.11-10.53-2.73-13.82-4.86s-4.94-5.16-4.94-9.09v-.33c0-3.87 1.72-7.03 5.15-9.46s8.05-3.65 13.86-3.65c4.59 0 8.62.79 12.08 2.37s6.05 3.83 7.76 6.76l-6.22 5.4c-1.49-1.99-3.5-3.49-6.02-4.48-2.52-1-5.05-1.49-7.59-1.49-2.38 0-4.37.39-5.98 1.16-1.6.77-2.41 1.8-2.41 3.07v.17c0 1.27.87 2.3 2.61 3.07s4.58 1.52 8.51 2.24l3.61.75c.8.17 1.99.47 3.57.91s2.79.86 3.65 1.24 1.87.94 3.03 1.66 2.06 1.48 2.7 2.28 1.18 1.78 1.62 2.95c.44 1.16.66 2.43.66 3.82v.33c0 4.15-1.85 7.48-5.56 10s-8.58 3.78-14.61 3.78h0zm49.85-10.05l.5 8.38c-2.27 1-5.53 1.49-9.79 1.49-5.37 0-9.19-1.27-11.45-3.82-2.27-2.55-3.4-6.42-3.4-11.62V64.73h-6.22v-9.21h6.22l2.08-12.45h10.04v12.45h12.04v9.21H269.6v17.6c0 3.04.51 5.24 1.54 6.6 1.02 1.36 2.61 2.03 4.77 2.03 1.99 0 3.9-.25 5.73-.75h0zm3.86-41.33v-9.63h12.12v9.63h-12.12zm0 50.13V55.53h12.12v43.49h-12.12zm44.94-44.57c4.98 0 9.02 1.48 12.12 4.44s4.65 7.21 4.65 12.74v27.39h-12.2V73.54c0-3.26-.83-5.7-2.49-7.3s-3.74-2.41-6.23-2.41-4.73.73-6.72 2.2-3.49 3.31-4.48 5.52v27.47h-12.2V55.53h10.87l.75 6.39c4.09-4.98 9.41-7.47 15.94-7.47h0zM385 55.53h10.87v38.18c0 6.47-2.12 11.58-6.35 15.31s-9.81 5.6-16.72 5.6c-3.93 0-7.79-.59-11.58-1.78s-6.96-2.7-9.5-4.52l3.49-7.72c5.04 3.43 10.24 5.15 15.6 5.15 3.87 0 6.93-.94 9.17-2.82s3.47-4.48 3.69-7.8c-3.82 2.77-8.19 4.15-13.11 4.15-5.53 0-10.35-1.77-14.44-5.31s-6.14-8.72-6.14-15.52V74.8c0-6.47 1.92-11.48 5.77-15.02s8.4-5.31 13.65-5.31c5.7 0 10.68 2.08 14.94 6.22l.66-5.15h0zm-11.62 34.78c3.93 0 7.36-1.66 10.29-4.98V69.64c-1.22-1.88-2.79-3.39-4.73-4.52a12.16 12.16 0 0 0-6.23-1.7c-3.1 0-5.63 1.05-7.59 3.15s-2.95 4.9-2.95 8.38v3.49c0 3.6 1.09 6.47 3.28 8.63s4.83 3.24 7.93 3.24h0zm71.34-14.78v4.9h-34.2c.17 3.32 1.44 5.96 3.82 7.93 2.38 1.96 5.51 2.95 9.38 2.95 5.75 0 10.43-2.3 14.03-6.89l6.06 5.64c-2.27 3.32-5.26 5.84-8.96 7.55-3.71 1.72-7.77 2.57-12.2 2.57-6.81 0-12.49-1.85-17.06-5.56-4.56-3.71-6.85-8.74-6.85-15.11v-4.4c0-6.47 2.27-11.55 6.81-15.23s10.13-5.52 16.77-5.52c6.25 0 11.55 1.81 15.89 5.44 4.34 3.62 6.52 8.87 6.52 15.73zM422.39 62.5c-3.38 0-6.13.93-8.26 2.78s-3.31 4.41-3.53 7.68h22.99c-.22-3.26-1.33-5.82-3.32-7.68-1.99-1.85-4.62-2.78-7.89-2.78zm37.48.75c1.94-2.71 4.47-4.8 7.59-6.27 3.13-1.47 6.43-2.14 9.92-2.03v10.96c-4.43-.39-8.18.47-11.25 2.57s-5.02 4.95-5.85 8.55v22h-12.2V55.54h10.79l1 7.72h0z" fill="#373435"></path><g fill="none" stroke="#ec268f" stroke-miterlimit="10" stroke-width="3.78"><path d="M473.96 32.06l28.45 67.29 28.45-66.79m5.74 24.77c12.96-8.5 29.06-8.61 34.07 6.61l1 32.93 2.78 2.86"></path><path d="M571.7 77.19c-14.75-6.32-38.23-4.99-38.43 8.35.14 13.91 21.59 22.15 38.13 2.67m16.51-36.57c-.28 20.16-.02 37.52 2.76 41.64 7.22 10.18 26.6 7.61 34.59-9.53m0-32.3l.76 45.54 2.38 2.57m14.96-69.26l.29 63.55c2.16 5.67 8.21 6.43 13.24 4.76m11.29-68.31l.29 63.55c2.16 5.67 9.96 6.98 16.74 3.84"></path><path d="M659,51.97l23.07-.17"></path></g><g fill-rule="evenodd"><path d="M52.4 11.93c-4.76 26.74-23.34 33.29-32.79 46.95C29.35 42.99 47.14 32.8 52.4 11.93z" fill="#ed81b3"></path><path d="M76.14 111.06C93.83 93.17 101.5 71.1 90.79 41.38c13.56 26.63 8.09 49.75-14.65 69.68z" fill="#73ccd6"></path></g></g></svg> 